<svg width="29" height="27" viewBox="0 0 29 27" fill="none" xmlns="http://www.w3.org/2000/svg">
<path d="M28.3717 5.13354C28.2021 4.89606 27.9313 4.75553 27.6435 4.75553H7.36504C7.32575 4.75553 7.28652 4.75797 7.24874 4.76317L6.41418 2.30624C6.32768 2.05214 6.13721 1.84959 5.89243 1.75117L1.68643 0.0637441C1.22289 -0.121601 0.699808 0.110931 0.517759 0.583763C0.336024 1.05685 0.563649 1.59138 1.02694 1.7773L4.84696 3.30988L9.52272 17.0743C9.31635 17.1477 9.14146 17.3094 9.06182 17.5357L7.7099 21.3709C7.62705 21.6061 7.66118 21.8674 7.80218 22.0717C7.94299 22.276 8.172 22.3977 8.41654 22.3977H9.11079C8.68056 22.8867 8.41654 23.5306 8.41654 24.2386C8.41654 25.7613 9.62965 27 11.1204 27C12.6111 27 13.8242 25.7613 13.8242 24.2386C13.8242 23.5306 13.5602 22.8867 13.13 22.3977H19.0249C18.5945 22.8867 18.3304 23.5306 18.3304 24.2386C18.3304 25.7613 19.5433 27 21.0343 27C22.5253 27 23.7382 25.7613 23.7382 24.2386C23.7382 23.5306 23.4741 22.8867 23.044 22.3977H23.8884C24.3032 22.3977 24.6394 22.0543 24.6394 21.6306C24.6394 21.207 24.3032 20.8637 23.8884 20.8637H9.48519L10.3225 18.4885C10.4306 18.535 10.5474 18.5625 10.6696 18.5625H23.8882C24.2801 18.5625 24.6269 18.3039 24.7463 17.9231L28.5016 5.9571C28.5897 5.67693 28.5413 5.37101 28.3717 5.13354ZM11.1204 25.4659C10.4576 25.4659 9.91869 24.9155 9.91869 24.2386C9.91869 23.5618 10.4576 23.0113 11.1204 23.0113C11.7831 23.0113 12.322 23.5618 12.322 24.2386C12.322 24.9155 11.7831 25.4659 11.1204 25.4659ZM21.0343 25.4659C20.3715 25.4659 19.8325 24.9155 19.8325 24.2386C19.8325 23.5618 20.3715 23.0113 21.0343 23.0113C21.697 23.0113 22.2359 23.5618 22.2359 24.2386C22.2359 24.9155 21.697 25.4659 21.0343 25.4659ZM25.7586 8.66748H21.1595V6.59646H26.4084L25.7586 8.66748ZM24.4342 12.8862H21.1595V10.5083H25.1806L24.4342 12.8862ZM15.2009 12.8862V10.5083H19.3569V12.8862H15.2009ZM19.3569 14.7272V16.7215H15.2009V14.7272H19.3569V14.7272ZM9.2003 10.5083H13.3985V12.8862H10.0081L9.2003 10.5083ZM15.2009 8.66748V6.59646H19.3569V8.66748H15.2009ZM13.3984 6.59646V8.66748H8.57476L7.87127 6.59646H13.3984ZM10.6336 14.7272H13.3984V16.7215H11.311L10.6336 14.7272ZM21.1595 16.7216V14.7273H23.8568L23.231 16.7216H21.1595Z" fill="#352929"/>
</svg>
