<svg width="29" height="27" viewBox="0 0 29 27" fill="none" xmlns="http://www.w3.org/2000/svg">
<path d="M27.9165 5.13354C27.7469 4.89606 27.4761 4.75553 27.1883 4.75553H6.90984C6.87055 4.75553 6.83132 4.75797 6.79354 4.76317L5.95898 2.30624C5.87248 2.05214 5.68201 1.84959 5.43723 1.75117L1.23123 0.0637442C0.76769 -0.121601 0.244608 0.110931 0.062559 0.583763C-0.119176 1.05685 0.108449 1.59138 0.57174 1.7773L4.39176 3.30988L9.06752 17.0743C8.86115 17.1477 8.68626 17.3094 8.60662 17.5357L7.2547 21.3709C7.17185 21.6061 7.20598 21.8674 7.34698 22.0717C7.48779 22.276 7.7168 22.3977 7.96134 22.3977H8.65559C8.22536 22.8867 7.96134 23.5306 7.96134 24.2386C7.96134 25.7613 9.17445 27 10.6652 27C12.1559 27 13.369 25.7613 13.369 24.2386C13.369 23.5306 13.105 22.8867 12.6748 22.3977H18.5697C18.1393 22.8867 17.8752 23.5306 17.8752 24.2386C17.8752 25.7613 19.0881 27 20.5791 27C22.0701 27 23.283 25.7613 23.283 24.2386C23.283 23.5306 23.0189 22.8867 22.5888 22.3977H23.4332C23.848 22.3977 24.1842 22.0543 24.1842 21.6306C24.1842 21.207 23.848 20.8637 23.4332 20.8637H9.02999L9.8673 18.4885C9.9754 18.535 10.0922 18.5625 10.2144 18.5625H23.433C23.8249 18.5625 24.1717 18.3039 24.2911 17.9231L28.0464 5.9571C28.1345 5.67693 28.0861 5.37101 27.9165 5.13354ZM10.6652 25.4659C10.0024 25.4659 9.46349 24.9155 9.46349 24.2386C9.46349 23.5618 10.0024 23.0113 10.6652 23.0113C11.3279 23.0113 11.8668 23.5618 11.8668 24.2386C11.8668 24.9155 11.3279 25.4659 10.6652 25.4659ZM20.5791 25.4659C19.9163 25.4659 19.3773 24.9155 19.3773 24.2386C19.3773 23.5618 19.9163 23.0113 20.5791 23.0113C21.2418 23.0113 21.7807 23.5618 21.7807 24.2386C21.7807 24.9155 21.2418 25.4659 20.5791 25.4659ZM25.3034 8.66748H20.7043V6.59646H25.9532L25.3034 8.66748ZM23.979 12.8862H20.7043V10.5083H24.7254L23.979 12.8862ZM14.7457 12.8862V10.5083H18.9017V12.8862H14.7457ZM18.9017 14.7272V16.7215H14.7457V14.7272H18.9017ZM8.7451 10.5083H12.9433V12.8862H9.5529L8.7451 10.5083ZM14.7457 8.66748V6.59646H18.9017V8.66748H14.7457ZM12.9432 6.59646V8.66748H8.11956L7.41607 6.59646H12.9432ZM10.1784 14.7272H12.9432V16.7215H10.8558L10.1784 14.7272ZM20.7043 16.7216V14.7273H23.4016L22.7758 16.7216H20.7043Z" fill="#FF7158"/>
</svg>
