<svg width="76" height="76" viewBox="0 0 76 76" fill="none" xmlns="http://www.w3.org/2000/svg">
<circle cx="38" cy="38" r="38" fill="#E4E4E4"/>
<path d="M32.0812 37H35.727C35.727 36.7468 35.8275 36.504 36.0066 36.325L37.2407 35.0909H32.3992L32.0812 37Z" fill="#352929"/>
<path d="M52.1519 35.0909H41.4543V36.9999H49.0907V37.061C49.9999 36.2458 51.0333 35.5807 52.1519 35.0909Z" fill="#352929"/>
<path d="M36.6816 42.7272H40.4999V44.6363H36.6816V42.7272Z" fill="#352929"/>
<path d="M25.6915 35.0909H9V37H26.0095L25.6915 35.0909Z" fill="#352929"/>
<path d="M25.2501 32.4437L23.8779 27.8714C23.8364 27.7331 23.8033 27.5939 23.7745 27.4545H11.8088C10.2583 27.4562 9.00181 28.7126 9 30.2631V33.1817H25.3732L25.2501 32.4437Z" fill="#352929"/>
<path d="M30.9545 17.909C36.1621 17.909 39.9929 20.0991 42.2897 21.9364C43.6045 22.9814 44.7761 24.1949 45.7745 25.5455H48.4649C47.5507 24.0225 46.4353 22.6298 45.1486 21.4051C41.3818 17.8183 36.6061 16 30.9545 16C25.2713 16 20.4757 17.8375 16.7008 21.4613C15.4376 22.6717 14.3415 24.0453 13.4413 25.5454H16.1345C17.1328 24.1948 18.3045 22.9814 19.6193 21.9363C21.9161 20.0991 25.7469 17.909 30.9545 17.909Z" fill="#352929"/>
<path d="M52.9089 30.2631C52.9071 28.7126 51.6506 27.4562 50.1001 27.4544H34.3156C34.2868 27.5937 34.2537 27.733 34.2122 27.8713L32.84 32.4436L32.7174 33.1817H39.1497L39.8247 32.5067C40.1974 32.134 40.8018 32.1339 41.1746 32.5067C41.3536 32.6858 41.4541 32.9286 41.4541 33.1818H52.9087V30.2631H52.9089Z" fill="#352929"/>
<path d="M56.7271 36.0454C51.4553 36.0454 47.1816 40.3191 47.1816 45.5909C47.1816 47.6562 47.8515 49.6659 49.0907 51.3181H51.684C48.5169 48.533 48.2074 43.7078 50.9924 40.5408C53.7775 37.3738 58.6027 37.0642 61.7697 39.8492C64.9367 42.6344 65.2463 47.4595 62.4613 50.6265C62.2458 50.8716 62.0148 51.1026 61.7697 51.3181H64.3634C67.5265 47.1007 66.6718 41.1176 62.4544 37.9545C60.802 36.7153 58.7924 36.0454 56.7271 36.0454Z" fill="#352929"/>
<path d="M26.1818 57.0454V38.9091H14.7273V41.7727C14.7273 42.3 14.2999 42.7273 13.7727 42.7273C13.2456 42.7273 12.8182 42.2999 12.8182 41.7727V38.9091H9V57.0729C9.00057 57.5847 9.41529 57.9994 9.92713 58H26.346C26.2373 57.6935 26.1817 57.3706 26.1818 57.0454Z" fill="#352929"/>
<path d="M56.7273 51.3181C59.8903 51.3181 62.4545 48.7539 62.4545 45.5908C62.4545 42.4278 59.8903 39.8636 56.7273 39.8636C53.5642 39.8636 51 42.4278 51 45.5908C51 48.7539 53.5642 51.3181 56.7273 51.3181Z" fill="#352929"/>
<path d="M47.1816 55.1363C47.1835 56.7171 48.4645 57.9981 50.0453 58H63.4089C64.9897 57.9982 66.2707 56.7171 66.2726 55.1363V53.2273H47.1816V55.1363Z" fill="#352929"/>
<path d="M26.8918 31.2727H31.1992L32.3842 27.3233C32.8389 25.8085 31.9796 24.212 30.4647 23.7573C30.1975 23.677 29.9198 23.6363 29.6408 23.6364H28.4499C26.8683 23.6363 25.5862 24.9184 25.5861 26.4999C25.5861 26.7788 25.6268 27.0562 25.7069 27.3233L26.8918 31.2727Z" fill="#352929"/>
<path d="M41.4545 38.909V40.8181C41.9817 40.8181 42.409 41.2455 42.409 41.7726V44.6362C42.9362 44.6362 43.3635 45.0636 43.3635 45.5907V57.9998H46.2298C45.6076 57.1748 45.2715 56.1694 45.2727 55.1361V52.2725C45.2727 51.7453 45.7001 51.318 46.2272 51.318H46.8089C44.5548 47.4202 44.7977 42.5625 47.4294 38.9089H41.4545V38.909Z" fill="#352929"/>
<path d="M29.0455 57.9999C29.5724 57.9993 29.9994 57.5723 30 57.0454V38.9091H28.0909V57.0454C28.0915 57.5724 28.5185 57.9993 29.0455 57.9999Z" fill="#352929"/>
<path d="M30.7823 33.1818H27.3086L27.9449 37H30.1459L30.7823 33.1818Z" fill="#352929"/>
<path d="M35.7272 46.5454H41.4544V57.9999H35.7272V46.5454Z" fill="#352929"/>
<path d="M35.7271 38.9091H31.9089V57.0454C31.909 57.3706 31.8535 57.6934 31.7446 57.9999H33.8179V45.5908C33.8179 45.0636 34.2453 44.6363 34.7724 44.6363V41.7727C34.7724 41.2455 35.1998 40.8182 35.727 40.8182V38.9091H35.7271Z" fill="#352929"/>
<path d="M37.6362 37.3953V40.8181H39.5454V35.4862L37.6362 37.3953Z" fill="#352929"/>
</svg>
