<svg width="76" height="76" viewBox="0 0 76 76" fill="none" xmlns="http://www.w3.org/2000/svg">
<circle cx="38" cy="38" r="38" fill="#E4E4E4"/>
<path d="M20.0998 40.1982C20.0998 31.483 27.1903 24.3926 35.9055 24.3926H40.0946C41.3431 24.3926 42.5581 24.5387 43.7239 24.8137C43.4857 24.4211 43.2333 24.0353 42.9668 23.6571C36.0013 13.7733 23.0171 13.7733 16.0517 23.6571C13.8604 26.7667 12.6047 30.3839 12.6047 34.2443C12.6047 40.0764 15.4711 45.3532 20.0998 49.163V40.1982Z" fill="#352929"/>
<path d="M45.3995 21.9428C45.7024 22.3725 45.9947 22.8191 46.2683 23.27L48.3734 26.7399C51.5254 28.6859 53.9446 31.708 55.118 35.2894C55.9271 34.8719 56.8295 34.6478 57.7734 34.6424L57.8077 34.6423C60.0752 34.6423 62.0147 35.9098 63.0284 37.8194C63.2687 36.6573 63.3956 35.4633 63.3956 34.2445C63.3955 22.627 52.0256 13.2093 38.0001 13.2093C36.299 13.2093 34.6376 13.349 33.0303 13.6131C37.8758 14.5698 42.2602 17.4882 45.3995 21.9428Z" fill="#352929"/>
<path d="M52.6721 37.6569C51.4929 31.7887 46.3102 27.3685 40.0947 27.3686H35.9055C28.8199 27.3686 23.0759 33.1126 23.0759 40.1982V49.4597C23.0759 56.9464 28.8839 63.1106 36.3495 63.911L48.1637 49.8699C49.1346 48.7298 50.4613 48.0094 51.8793 47.8331L51.8392 40.9303C51.8322 39.7502 52.1233 38.626 52.6721 37.6569ZM43.0752 51.2249C42.0723 53.0886 40.1276 54.2464 38.0001 54.2464C35.8724 54.2464 33.9278 53.0886 32.9249 51.2249C32.5348 50.5001 32.8108 49.5985 33.5413 49.2115C34.2719 48.8244 35.1802 49.0983 35.5702 49.8231C36.0506 50.7158 36.9817 51.2705 38.0001 51.2705C39.0185 51.2705 39.9495 50.7159 40.4299 49.8231C40.8198 49.0982 41.7285 48.8245 42.4588 49.2115C43.1893 49.5985 43.4653 50.5 43.0752 51.2249Z" fill="#352929"/>
<path d="M60.8061 40.8786C60.7949 38.9589 59.4448 37.6087 57.7903 37.6182C56.136 37.6277 54.8039 38.9932 54.815 40.9129L54.855 47.7752C54.855 47.7752 56.453 49.1345 56.4759 49.1566C58.3818 50.9978 58.517 54.1166 56.7795 56.1137L55.1617 58.013C54.8779 58.3461 54.4781 58.5247 54.0709 58.5395C53.7109 58.5526 53.3453 58.4378 53.0485 58.1888C52.4929 57.7228 52.3647 56.9416 52.7041 56.3331L54.2346 54.4297C55.0496 53.4161 54.8886 51.9336 53.875 51.1186C52.8614 50.3036 51.3789 50.4646 50.5639 51.4782L47.6372 55.1181L40.1726 63.9896L57.9003 64L58.9816 62.7118C60.2236 61.2323 60.9132 59.2441 60.9012 57.1768L60.8061 40.8786Z" fill="#352929"/>
</svg>
