<svg width="76" height="76" viewBox="0 0 76 76" fill="none" xmlns="http://www.w3.org/2000/svg">
<circle cx="38" cy="38" r="38" fill="#E4E4E4"/>
<path d="M38.6196 60.3527C39.6268 60.3527 40.4432 59.5362 40.4432 58.529C40.4432 57.5218 39.6268 56.7053 38.6196 56.7053C37.6124 56.7053 36.7959 57.5218 36.7959 58.529C36.7959 59.5362 37.6124 60.3527 38.6196 60.3527Z" fill="#352929"/>
<path d="M26.7657 53.8521V63.2059C26.766 63.4165 26.8497 63.6183 26.9986 63.7672C27.1474 63.9161 27.3493 63.9998 27.5598 64H49.6794C49.8899 63.9998 50.0918 63.9161 50.2407 63.7672C50.3895 63.6183 50.4733 63.4165 50.4735 63.2059V53.8521C50.4733 53.6415 50.3895 53.4397 50.2407 53.2908C50.0918 53.1419 49.8899 53.0582 49.6794 53.058H27.5598C27.3493 53.0582 27.1474 53.1419 26.9986 53.2908C26.8497 53.4397 26.766 53.6415 26.7657 53.8521ZM38.6196 54.8817C39.341 54.8817 40.0462 55.0956 40.646 55.4963C41.2458 55.8971 41.7133 56.4668 41.9893 57.1332C42.2654 57.7997 42.3376 58.533 42.1969 59.2406C42.0561 59.9481 41.7088 60.598 41.1987 61.1081C40.6886 61.6181 40.0387 61.9655 39.3312 62.1063C38.6237 62.247 37.8903 62.1748 37.2238 61.8987C36.5574 61.6226 35.9877 61.1552 35.587 60.5554C35.1862 59.9556 34.9723 59.2504 34.9723 58.529C34.9734 57.562 35.358 56.6349 36.0417 55.9511C36.7255 55.2674 37.6526 54.8827 38.6196 54.8817Z" fill="#352929"/>
<path d="M57.7682 63.0882V60.3527H52.2971V63.2059C52.2972 63.4754 52.2556 63.7433 52.1737 64H56.8563C57.0981 63.9997 57.3298 63.9036 57.5008 63.7326C57.6717 63.5617 57.7679 63.3299 57.7682 63.0882Z" fill="#352929"/>
<path d="M29.5012 49.4106H47.7379V51.2343H29.5012V49.4106Z" fill="#352929"/>
<path d="M53.209 40.2923C54.7198 40.2923 55.9445 39.884 55.9445 39.3804C55.9445 38.8768 54.7198 38.4686 53.209 38.4686C51.6982 38.4686 50.4735 38.8768 50.4735 39.3804C50.4735 39.884 51.6982 40.2923 53.209 40.2923Z" fill="#352929"/>
<path d="M14 37.4975L17.4283 63.2086C17.4581 63.4274 17.566 63.628 17.7321 63.7735C17.8982 63.9189 18.1113 63.9994 18.3321 64H25.0655C24.9836 63.7432 24.9419 63.4754 24.942 63.2059V53.8521C24.9428 53.158 25.2189 52.4926 25.7096 52.0019C26.2004 51.5111 26.8658 51.2351 27.5598 51.2343H27.6775V48.4988C27.6775 48.2569 27.7736 48.025 27.9446 47.854C28.1156 47.683 28.3475 47.5869 28.5894 47.5869C30.935 47.5869 32.2025 46.5145 33.6698 45.2732C34.0884 44.9189 34.5208 44.5536 34.99 44.2024L35.8841 37.4975C35.8654 34.8485 34.8008 32.3142 32.9221 30.4466C31.0434 28.5791 28.5029 27.5295 25.8539 27.5266H24.0302C21.3812 27.5295 18.8406 28.5791 16.9619 30.4466C15.0833 32.3142 14.0186 34.8485 14 37.4975ZM18.5592 34.8212C18.5592 34.5794 18.6552 34.3475 18.8263 34.1765C18.9973 34.0055 19.2292 33.9094 19.471 33.9094H30.413C30.6549 33.9094 30.8868 34.0055 31.0578 34.1765C31.2288 34.3475 31.3249 34.5794 31.3249 34.8212V40.2923C31.3249 40.5341 31.2288 40.766 31.0578 40.937C30.8868 41.108 30.6549 41.2041 30.413 41.2041H19.471C19.2292 41.2041 18.9973 41.108 18.8263 40.937C18.6552 40.766 18.5592 40.5341 18.5592 40.2923V34.8212Z" fill="#352929"/>
<path d="M20.5475 25.7029H24.0302H25.8539H29.3367L28.7288 22.0555H21.1553L20.5475 25.7029Z" fill="#352929"/>
<path d="M34.0604 13L21.9662 13.8063L21.6481 14.7609H34.0604V13Z" fill="#352929"/>
<path d="M40.776 44.9453C40.5792 44.6552 40.447 44.3263 40.3884 43.9808C37.7441 44.2145 36.333 45.4085 34.8483 46.6649C34.481 46.9757 34.1104 47.2888 33.7213 47.587H47.4317C47.4203 47.5663 47.41 47.5457 47.3984 47.5251C47.0693 46.9452 46.5983 46.6751 45.9144 46.6751C43.2758 46.6751 41.547 46.0932 40.776 44.9453Z" fill="#352929"/>
<path d="M45.0024 29.3503H61.4155V31.1739H45.0024V29.3503Z" fill="#352929"/>
<path d="M45.1321 32.9976L46.7236 44.9363C47.2137 45.0403 47.6745 45.2523 48.0724 45.5568C48.4703 45.8614 48.7953 46.2507 49.0238 46.6967C49.3071 47.2273 49.4878 47.8067 49.5564 48.4043V48.4074C49.5564 48.4131 49.5577 48.4196 49.5579 48.4231C49.56 48.4482 49.5617 48.4733 49.5617 48.4988V51.2343H49.6794C50.3734 51.2351 51.0388 51.5111 51.5296 52.0019C52.0203 52.4927 52.2964 53.158 52.2972 53.8521V58.529H57.8822L61.2864 32.9976H45.1321ZM53.209 42.1159C50.6103 42.1159 48.6498 40.94 48.6498 39.3804C48.6498 37.8209 50.6103 36.6449 53.209 36.6449C55.8077 36.6449 57.7682 37.8209 57.7682 39.3804C57.7682 40.94 55.8077 42.1159 53.209 42.1159Z" fill="#352929"/>
<path d="M20.3828 35.7331H29.5012V39.3804H20.3828V35.7331Z" fill="#352929"/>
<path d="M23.1184 16.5845H26.7658V20.2319H23.1184V16.5845Z" fill="#352929"/>
</svg>
