<svg width="76" height="76" viewBox="0 0 76 76" fill="none" xmlns="http://www.w3.org/2000/svg">
<circle cx="38" cy="38" r="38" fill="#E4E4E4"/>
<path d="M59.0913 61.3993L50.9434 53.2514L46.6345 57.5604L52.6279 63.5538C52.9136 63.8395 53.3011 64 53.7052 64H58.0141C59.3713 64 60.0509 62.3591 59.0913 61.3993Z" fill="#352929"/>
<path d="M42.3474 42.5574C39.7389 44.0747 37.4576 46.356 35.9402 48.9646C34.9304 50.7006 35.783 52.9211 37.7141 53.4729L44.4799 55.406L48.7888 51.0971L46.8558 44.3313C46.304 42.4002 44.0834 41.5476 42.3474 42.5574Z" fill="#352929"/>
<path d="M24.0679 35.8672C29.0476 35.8672 33.7486 33.448 36.6431 29.3957C36.9291 28.9955 37.3908 28.7578 37.8827 28.7578C38.3747 28.7578 38.8364 28.9955 39.1224 29.3957C42.0168 33.448 46.7179 35.8672 51.6976 35.8672H55.6136C54.9851 26.6333 47.2734 19.3125 37.8827 19.3125C28.4921 19.3125 20.7803 26.6333 20.1519 35.8672H24.0679Z" fill="#352929"/>
<path d="M58.7031 37.9272V41.1971C58.7031 43.1709 58.4858 45.1287 58.0625 47.0391H58.1952C60.7194 47.0391 62.7656 44.9929 62.7656 42.4688C62.7656 40.1164 60.9881 38.1799 58.7031 37.9272Z" fill="#352929"/>
<path d="M17.0625 37.9272C14.7774 38.1799 13 40.1164 13 42.4688C13 44.9929 15.0462 47.0391 17.5703 47.0391H17.6973C17.2801 45.1439 17.0625 43.1873 17.0625 41.1971V37.9272Z" fill="#352929"/>
<path d="M51.6976 38.9141C46.402 38.9141 41.3699 36.6289 37.8828 32.718C34.3959 36.6289 29.3636 38.9141 24.068 38.9141H20.1094V41.1971C20.1094 50.0603 24.9572 58.1766 32.761 62.3788C33.5905 62.8252 36.4215 64 37.8828 64C39.3441 64 42.1751 62.8252 43.0047 62.3786C43.8813 61.9065 44.7324 61.3744 45.5523 60.7873L42.8839 58.1188L36.8771 56.4026C35.061 55.8838 33.6152 54.5821 32.9102 52.8317C32.1968 51.06 32.3413 49.0922 33.3066 47.4326C35.0874 44.3711 37.7541 41.7045 40.8155 39.9238C41.7613 39.3736 42.8348 39.0829 43.9201 39.0829C46.6745 39.0829 49.0316 40.8558 49.7854 43.4944L51.5015 49.5009L53.384 51.3833C54.8763 48.1987 55.6562 44.7258 55.6562 41.1971V38.9141H51.6976ZM32.6442 44.0724C31.6524 45.0302 30.3496 45.5091 29.0469 45.5091C27.7441 45.5091 26.4414 45.0302 25.4495 44.0724C24.8443 43.4879 24.8275 42.5236 25.412 41.9183C25.9964 41.313 26.9609 41.2963 27.5661 41.8807C28.3826 42.6693 29.7112 42.6693 30.5277 41.8807C31.1329 41.2962 32.0973 41.313 32.6818 41.9183C33.2663 42.5236 33.2494 43.4879 32.6442 44.0724Z" fill="#352929"/>
<path d="M46.7822 18.2641C45.8357 14.6736 42.2106 12 37.8828 12C33.555 12 29.93 14.6736 28.9834 18.2641C31.7384 16.9573 34.7675 16.2656 37.8828 16.2656C40.9981 16.2656 44.0272 16.9573 46.7822 18.2641Z" fill="#352929"/>
</svg>
