<svg width="76" height="76" viewBox="0 0 76 76" fill="none" xmlns="http://www.w3.org/2000/svg">
<circle cx="38" cy="38" r="38" fill="#E4E4E4"/>
<g clip-path="url(#clip0)">
<path d="M21.647 26.6912C24.0348 26.6912 25.9705 24.7555 25.9705 22.3677C25.9705 19.9798 24.0348 18.0441 21.647 18.0441C19.2592 18.0441 17.3235 19.9798 17.3235 22.3677C17.3235 24.7555 19.2592 26.6912 21.647 26.6912Z" fill="#352929"/>
<path d="M54.0734 45.4265C56.0633 45.4265 57.6764 43.8134 57.6764 41.8235C57.6764 39.8337 56.0633 38.2206 54.0734 38.2206C52.0836 38.2206 50.4705 39.8337 50.4705 41.8235C50.4705 43.8134 52.0836 45.4265 54.0734 45.4265Z" fill="#352929"/>
<path d="M46.8677 37.5H23.8088V51.9118H39.3814C40.8787 49.3291 43.6737 47.5883 46.8677 47.5883V37.5ZM35.3383 49.0294H29.5736V46.1471H35.3383V49.0294ZM41.103 43.2647H29.5736V40.3824H41.103V43.2647Z" fill="#352929"/>
<path d="M38.3414 54.7941H23.8088V62H40.4285C38.6143 59.9757 37.916 57.3181 38.3414 54.7941Z" fill="#352929"/>
<path d="M39.6617 23.7458V20.2059H31.0146V23.7511C33.7926 22.8776 36.8284 22.8588 39.6617 23.7458Z" fill="#352929"/>
<path d="M31.0146 13H39.6617V17.3235H31.0146V13Z" fill="#352929"/>
<path d="M46.5057 34.6177C45.2426 29.689 40.7582 25.9706 35.3382 25.9706C29.9757 25.9706 25.4566 29.6505 24.1736 34.6177H46.5057Z" fill="#352929"/>
<path d="M46.8675 62C50.0513 62 52.6322 59.4191 52.6322 56.2353C52.6322 53.0515 50.0513 50.4706 46.8675 50.4706C43.6837 50.4706 41.1028 53.0515 41.1028 56.2353C41.1028 59.4191 43.6837 62 46.8675 62Z" fill="#352929"/>
</g>
<defs>
<clipPath id="clip0">
<rect width="49" height="49" fill="white" transform="translate(13 13)"/>
</clipPath>
</defs>
</svg>
