<svg width="76" height="76" viewBox="0 0 76 76" fill="none" xmlns="http://www.w3.org/2000/svg">
<circle cx="38" cy="38" r="38" fill="#E4E4E4"/>
<path d="M42.5002 31.9998H33.5001C32.6721 31.9998 32.0001 31.3278 32.0001 30.4998V24.4998C32.0001 21.4657 34.4661 18.9997 37.5002 18.9997H38.5002C41.5342 18.9997 44.0002 21.4657 44.0002 24.4998V30.4998C44.0002 31.3278 43.3282 31.9998 42.5002 31.9998Z" fill="#352929"/>
<path d="M50.0003 26.9998H43.0003C41.8942 26.9998 41.0002 26.1037 41.0002 24.9997C41.0002 23.8957 41.8942 22.9997 43.0003 22.9997H50.0003C51.1063 22.9997 52.0003 23.8957 52.0003 24.9997C52.0003 26.1037 51.1063 26.9998 50.0003 26.9998Z" fill="#352929"/>
<path d="M56.0003 30.9998H52.5003C50.5703 30.9998 49.0002 29.4298 49.0002 27.4998V22.4997C49.0002 20.5697 50.5703 18.9997 52.5003 18.9997H56.0003C59.3083 18.9997 62.0003 21.6917 62.0003 24.9998C62.0003 28.3078 59.3083 30.9998 56.0003 30.9998Z" fill="#352929"/>
<path d="M20 26.9998H16C14.894 26.9998 14 26.1037 14 24.9997C14 23.8957 14.894 22.9997 16 22.9997H20C21.106 22.9997 22.0001 23.8957 22.0001 24.9997C22.0001 26.1037 21.106 26.9998 20 26.9998Z" fill="#352929"/>
<path d="M33.0002 26.9998H30.0001C28.8941 26.9998 28.0001 26.1037 28.0001 24.9997C28.0001 23.8957 28.8941 22.9997 30.0001 22.9997H33.0002C34.1062 22.9997 35.0002 23.8957 35.0002 24.9997C35.0002 26.1037 34.1062 26.9998 33.0002 26.9998Z" fill="#352929"/>
<path d="M18.0019 34.9998C17.2679 34.9998 16.5619 34.5958 16.2099 33.8938C15.7159 32.9058 16.1179 31.7058 17.1059 31.2098L19.106 30.2098C20.096 29.7158 21.294 30.1158 21.79 31.1038C22.284 32.0918 21.884 33.2938 20.896 33.7878L18.896 34.7878C18.608 34.9318 18.302 34.9998 18.0019 34.9998Z" fill="#352929"/>
<path d="M19.998 19.9997C19.698 19.9997 19.392 19.9317 19.106 19.7897L17.1059 18.7897C16.1179 18.2937 15.7159 17.0937 16.2099 16.1057C16.7059 15.1177 17.9059 14.7177 18.894 15.2117L20.894 16.2117C21.882 16.7057 22.282 17.9077 21.788 18.8957C21.438 19.5957 20.732 19.9997 19.998 19.9997Z" fill="#352929"/>
<path d="M44.4502 63H31.5461C30.4361 63 29.3901 62.714 28.5181 62.174C22.334 58.346 19.082 51.2179 20.232 44.0159C21.474 36.2038 27.8661 30.0838 35.7741 29.1338C40.9341 28.5118 46.1022 30.1178 49.9582 33.5358C53.7962 36.9418 56.0002 41.8259 56.0002 46.9379C56.0002 53.1739 52.8162 58.868 47.4822 62.172C46.6082 62.714 45.5582 63 44.4502 63ZM38.0201 32.9998C37.4361 32.9998 36.8461 33.0358 36.2521 33.1058C30.2101 33.8338 25.132 38.6878 24.184 44.6479C23.29 50.2539 25.818 55.7979 30.6261 58.774C30.8621 58.92 31.1901 59 31.5461 59H44.4482C44.8142 59 45.1342 58.92 45.3762 58.772C49.5242 56.2019 52.0002 51.7779 52.0002 46.9379C52.0002 42.9699 50.2902 39.1758 47.3042 36.5298C44.7042 34.2218 41.4581 32.9998 38.0201 32.9998Z" fill="#352929"/>
</svg>
