<svg width="111" height="24" viewBox="0 0 111 24" fill="none" xmlns="http://www.w3.org/2000/svg">
<path d="M8.82 7.42205C10.932 7.42205 12.588 7.9493 13.788 9.0038C14.988 10.0583 15.588 11.782 15.588 14.1749H3.744L3.672 13.597H11.052C11.076 12.6033 11.004 11.6907 10.836 10.8593C10.668 10.0076 10.404 9.32826 10.044 8.82129C9.684 8.31432 9.204 8.06084 8.604 8.06084C7.764 8.06084 7.044 8.50697 6.444 9.39924C5.868 10.2915 5.52 11.7719 5.4 13.8403L5.508 14.0228C5.484 14.2662 5.46 14.5196 5.436 14.7833C5.436 15.0469 5.436 15.3207 5.436 15.6046C5.436 17.0038 5.664 18.1394 6.12 19.0114C6.6 19.8834 7.2 20.5222 7.92 20.9278C8.64 21.3131 9.372 21.5057 10.116 21.5057C10.836 21.5057 11.616 21.3536 12.456 21.0494C13.32 20.7452 14.124 20.0862 14.868 19.0722L15.516 19.2548C15.228 20.0253 14.772 20.7757 14.148 21.5057C13.524 22.2357 12.732 22.834 11.772 23.3004C10.812 23.7668 9.66 24 8.316 24C6.684 24 5.244 23.706 3.996 23.1179C2.748 22.5298 1.764 21.6375 1.044 20.4411C0.348 19.2446 0 17.7237 0 15.8783C0 13.9924 0.372 12.4208 1.116 11.1635C1.884 9.90621 2.928 8.97338 4.248 8.36502C5.592 7.73638 7.116 7.42205 8.82 7.42205Z" fill="#352929"/>
<path d="M35.6006 7.51331V20.2586C35.6006 21.1711 35.7686 21.8504 36.1046 22.2966C36.4406 22.7224 37.0406 22.9354 37.9046 22.9354V23.5741C37.1606 23.5133 36.4166 23.4829 35.6726 23.4829C34.6646 23.4829 33.7286 23.5133 32.8646 23.5741C32.0006 23.635 31.1846 23.7465 30.4166 23.9087V21.1711C29.8406 22.185 29.0366 22.9151 28.0046 23.3612C26.9966 23.7871 25.8686 24 24.6206 24C23.6126 24 22.7966 23.8885 22.1726 23.6654C21.5486 23.4423 21.0566 23.1584 20.6966 22.8137C20.2886 22.4284 20.0006 21.9214 19.8326 21.2928C19.6646 20.6641 19.5806 19.853 19.5806 18.8593V11.1635C19.5806 10.251 19.4126 9.58175 19.0766 9.15589C18.7646 8.70976 18.1646 8.48669 17.2766 8.48669V7.84791C18.0446 7.90875 18.7886 7.93916 19.5086 7.93916C20.5166 7.93916 21.4526 7.90875 22.3166 7.84791C23.2046 7.76679 24.0206 7.65526 24.7646 7.51331V20.1065C24.7646 20.6134 24.8126 21.0596 24.9086 21.4449C25.0286 21.8302 25.2446 22.1343 25.5566 22.3574C25.8686 22.5602 26.3246 22.6616 26.9246 22.6616C27.8846 22.6616 28.7006 22.327 29.3726 21.6578C30.0686 20.9683 30.4166 20.1267 30.4166 19.1331V11.1635C30.4166 10.251 30.2486 9.58175 29.9126 9.15589C29.6006 8.70976 29.0006 8.48669 28.1126 8.48669V7.84791C28.8806 7.90875 29.6246 7.93916 30.3446 7.93916C31.3526 7.93916 32.2886 7.90875 33.1526 7.84791C34.0406 7.76679 34.8566 7.65526 35.6006 7.51331Z" fill="#352929"/>
<path d="M52.8967 7.42205C53.9047 7.42205 54.7207 7.53359 55.3447 7.75665C55.9927 7.95944 56.4967 8.24335 56.8567 8.60837C57.2407 8.99366 57.5167 9.49049 57.6847 10.0989C57.8767 10.7072 57.9727 11.5285 57.9727 12.5627V20.7452C57.9727 21.597 58.1407 22.1749 58.4767 22.4791C58.8367 22.7833 59.4367 22.9354 60.2767 22.9354V23.5741C59.8207 23.5539 59.1367 23.5336 58.2247 23.5133C57.3127 23.4728 56.4127 23.4525 55.5247 23.4525C54.6127 23.4525 53.7127 23.4728 52.8247 23.5133C51.9607 23.5336 51.3007 23.5539 50.8447 23.5741V22.9354C51.5647 22.9354 52.0687 22.7833 52.3567 22.4791C52.6447 22.1749 52.7887 21.597 52.7887 20.7452V11.2852C52.7887 10.7782 52.7287 10.3422 52.6087 9.97719C52.4887 9.59189 52.2727 9.29785 51.9607 9.09506C51.6487 8.87199 51.1807 8.76046 50.5567 8.76046C49.5487 8.76046 48.6967 9.09506 48.0007 9.76426C47.3287 10.4335 46.9927 11.275 46.9927 12.289V20.7452C46.9927 21.597 47.1367 22.1749 47.4247 22.4791C47.7367 22.7833 48.2407 22.9354 48.9367 22.9354V23.5741C48.5047 23.5539 47.8687 23.5336 47.0287 23.5133C46.2127 23.4728 45.3607 23.4525 44.4727 23.4525C43.5607 23.4525 42.6247 23.4728 41.6647 23.5133C40.7047 23.5336 39.9847 23.5539 39.5047 23.5741V22.9354C40.3447 22.9354 40.9327 22.7833 41.2687 22.4791C41.6287 22.1749 41.8087 21.597 41.8087 20.7452V11.1635C41.8087 10.251 41.6407 9.58175 41.3047 9.15589C40.9927 8.70976 40.3927 8.48669 39.5047 8.48669V7.84791C40.2727 7.90875 41.0167 7.93916 41.7367 7.93916C42.7447 7.93916 43.6807 7.90875 44.5447 7.84791C45.4327 7.76679 46.2487 7.65526 46.9927 7.51331V10.251C47.5927 9.21673 48.4087 8.48669 49.4407 8.06084C50.4727 7.63498 51.6247 7.42205 52.8967 7.42205Z" fill="#352929"/>
<path d="M70.9059 7.42205C72.6579 7.42205 74.1939 7.69582 75.5139 8.24335C76.8339 8.79087 77.8659 9.673 78.6099 10.8897C79.3539 12.1065 79.7259 13.7186 79.7259 15.7262C79.7259 17.7338 79.3539 19.346 78.6099 20.5627C77.8659 21.7592 76.8339 22.6312 75.5139 23.1787C74.1939 23.7262 72.6579 24 70.9059 24C69.2019 24 67.6779 23.7262 66.3339 23.1787C65.0139 22.6312 63.9699 21.7592 63.2019 20.5627C62.4579 19.346 62.0859 17.7338 62.0859 15.7262C62.0859 13.7186 62.4579 12.1065 63.2019 10.8897C63.9699 9.673 65.0139 8.79087 66.3339 8.24335C67.6779 7.69582 69.2019 7.42205 70.9059 7.42205ZM70.9059 8.03042C69.9459 8.03042 69.1419 8.63878 68.4939 9.85551C67.8459 11.052 67.5219 13.0089 67.5219 15.7262C67.5219 18.4436 67.8459 20.4005 68.4939 21.597C69.1419 22.7934 69.9459 23.3916 70.9059 23.3916C71.8899 23.3916 72.6939 22.7934 73.3179 21.597C73.9659 20.4005 74.2899 18.4436 74.2899 15.7262C74.2899 13.0089 73.9659 11.052 73.3179 9.85551C72.6939 8.63878 71.8899 8.03042 70.9059 8.03042Z" fill="#352929"/>
<path d="M86.6534 0C87.6614 0 88.4534 0.212928 89.0294 0.638784C89.6294 1.04436 89.9294 1.61217 89.9294 2.34221C89.9294 3.07224 89.6294 3.65019 89.0294 4.07605C88.4534 4.48162 87.6614 4.68441 86.6534 4.68441C85.6454 4.68441 84.8414 4.48162 84.2414 4.07605C83.6654 3.65019 83.3774 3.07224 83.3774 2.34221C83.3774 1.61217 83.6654 1.04436 84.2414 0.638784C84.8414 0.212928 85.6454 0 86.6534 0ZM89.4614 7.51331V20.7452C89.4614 21.597 89.6294 22.1749 89.9654 22.4791C90.3254 22.7833 90.9254 22.9354 91.7654 22.9354V23.5741C91.3334 23.5539 90.6614 23.5336 89.7494 23.5133C88.8374 23.4728 87.9134 23.4525 86.9774 23.4525C86.0414 23.4525 85.0934 23.4728 84.1334 23.5133C83.1734 23.5336 82.4534 23.5539 81.9734 23.5741V22.9354C82.8134 22.9354 83.4014 22.7833 83.7374 22.4791C84.0974 22.1749 84.2774 21.597 84.2774 20.7452V11.1635C84.2774 10.251 84.1094 9.58175 83.7734 9.15589C83.4614 8.70976 82.8614 8.48669 81.9734 8.48669V7.84791C82.7414 7.90875 83.4854 7.93916 84.2054 7.93916C85.2134 7.93916 86.1494 7.90875 87.0134 7.84791C87.9014 7.76679 88.7174 7.65526 89.4614 7.51331Z" fill="#352929"/>
<path d="M98.0809 23.7871C96.4729 23.7871 95.3089 23.4322 94.5889 22.7224C93.8689 22.0127 93.5089 21.1508 93.5089 20.1369C93.5089 19.2649 93.7369 18.5551 94.1929 18.0076C94.6729 17.4601 95.2849 17.0139 96.0289 16.6692C96.7729 16.3042 97.5529 16.0101 98.3689 15.7871C99.2089 15.5437 100.001 15.3105 100.745 15.0875C101.513 14.8441 102.125 14.5703 102.581 14.2662C103.061 13.962 103.301 13.5767 103.301 13.1103V10.7376C103.301 10.2104 103.193 9.74398 102.977 9.3384C102.785 8.91255 102.473 8.58809 102.041 8.36502C101.633 8.14195 101.093 8.03042 100.421 8.03042C99.9409 8.03042 99.4609 8.09125 98.9809 8.21293C98.5009 8.31432 98.1049 8.49683 97.7929 8.76046C98.4649 8.96324 98.9809 9.27757 99.3409 9.70342C99.7249 10.109 99.9169 10.5754 99.9169 11.1027C99.9169 11.7921 99.6289 12.3397 99.0529 12.7452C98.5009 13.1508 97.8409 13.3536 97.0729 13.3536C96.2089 13.3536 95.5489 13.1305 95.0929 12.6844C94.6609 12.218 94.4449 11.6603 94.4449 11.0114C94.4449 10.4233 94.6129 9.93663 94.9489 9.55133C95.3089 9.16603 95.8009 8.80101 96.4249 8.45627C97.0969 8.13181 97.9009 7.87833 98.8369 7.69582C99.7969 7.51331 100.829 7.42205 101.933 7.42205C103.037 7.42205 104.033 7.52345 104.921 7.72624C105.809 7.90875 106.553 8.25349 107.153 8.76046C107.705 9.22687 108.065 9.80482 108.233 10.4943C108.401 11.1635 108.485 12.0152 108.485 13.0494V21.3232C108.485 21.8099 108.545 22.1546 108.665 22.3574C108.785 22.5602 108.989 22.6616 109.277 22.6616C109.517 22.6616 109.745 22.6109 109.961 22.5095C110.177 22.4081 110.381 22.2864 110.573 22.1445L110.933 22.6616C110.429 23.0266 109.841 23.3105 109.169 23.5133C108.521 23.6958 107.789 23.7871 106.973 23.7871C105.533 23.7871 104.573 23.5437 104.093 23.057C103.637 22.5501 103.397 21.9721 103.373 21.3232C102.773 22.1546 102.029 22.7731 101.141 23.1787C100.277 23.5843 99.2569 23.7871 98.0809 23.7871ZM100.853 21.8403C101.309 21.8403 101.729 21.7491 102.113 21.5665C102.521 21.384 102.917 21.0596 103.301 20.5932V14.3574C103.013 14.763 102.605 15.1077 102.077 15.3916C101.573 15.6553 101.045 15.9493 100.493 16.2738C99.9649 16.5779 99.5209 16.9734 99.1609 17.4601C98.8009 17.9468 98.6209 18.5957 98.6209 19.4068C98.6209 20.2788 98.8369 20.9075 99.2689 21.2928C99.7009 21.6578 100.229 21.8403 100.853 21.8403Z" fill="#352929"/>
</svg>
